<mxfile host="app.diagrams.net" modified="2023-03-15T03:28:59.591Z" agent="5.0 (Windows NT 10.0; Win64; x64) AppleWebKit/537.36 (KHTML, like Gecko) Chrome/111.0.0.0 Safari/537.36" etag="A6y5q7wVIHE2n6lAtaDP" version="21.0.6" type="github">
  <diagram name="Flow TNL" id="12e1b939-464a-85fe-373e-61e167be1490">
    <mxGraphModel dx="1857" dy="990" grid="1" gridSize="10" guides="1" tooltips="1" connect="1" arrows="1" fold="1" page="1" pageScale="1.5" pageWidth="1169" pageHeight="826" background="none" math="0" shadow="0">
      <root>
        <mxCell id="0" />
        <mxCell id="1" parent="0" />
        <mxCell id="8H5z0bGd2YHfDFZXJcyK-37" value="" style="text;html=1;strokeColor=#6c8ebf;fillColor=#dae8fc;align=center;verticalAlign=middle;whiteSpace=wrap;rounded=0;shadow=0;fontSize=27;fontStyle=1" vertex="1" parent="1">
          <mxGeometry x="240" y="1080" width="1600" height="595" as="geometry" />
        </mxCell>
        <mxCell id="8H5z0bGd2YHfDFZXJcyK-36" value="" style="text;html=1;strokeColor=#6c8ebf;fillColor=#dae8fc;align=center;verticalAlign=middle;whiteSpace=wrap;rounded=0;shadow=0;fontSize=27;fontStyle=1" vertex="1" parent="1">
          <mxGeometry x="240" y="305" width="1320" height="595" as="geometry" />
        </mxCell>
        <mxCell id="60da8b9f42644d3a-2" value="" style="whiteSpace=wrap;html=1;rounded=1;shadow=0;strokeWidth=8;fontSize=20;align=center;fillColor=#FED217;strokeColor=#FFFFFF;" parent="1" vertex="1">
          <mxGeometry x="316" y="405" width="280" height="430" as="geometry" />
        </mxCell>
        <mxCell id="60da8b9f42644d3a-3" value="&lt;font color=&quot;#000000&quot;&gt;System ERP Arca&lt;/font&gt;" style="text;html=1;strokeColor=none;fillColor=none;align=center;verticalAlign=middle;whiteSpace=wrap;rounded=0;shadow=0;fontSize=27;fontColor=#FFFFFF;fontStyle=1" parent="1" vertex="1">
          <mxGeometry x="750" y="330" width="280" height="60" as="geometry" />
        </mxCell>
        <mxCell id="60da8b9f42644d3a-4" value="Print PP&lt;br&gt;Print PO" style="text;html=1;strokeColor=none;fillColor=none;align=center;verticalAlign=middle;whiteSpace=wrap;rounded=0;shadow=0;fontSize=14;fontColor=#050505;fontStyle=1" parent="1" vertex="1">
          <mxGeometry x="316" y="725" width="280" height="90" as="geometry" />
        </mxCell>
        <mxCell id="60da8b9f42644d3a-6" value="" style="line;strokeWidth=2;html=1;rounded=0;shadow=0;fontSize=27;align=center;fillColor=none;strokeColor=#FFFFFF;" parent="1" vertex="1">
          <mxGeometry x="336" y="485" width="240" height="10" as="geometry" />
        </mxCell>
        <mxCell id="60da8b9f42644d3a-7" value="" style="line;strokeWidth=2;html=1;rounded=0;shadow=0;fontSize=27;align=center;fillColor=none;strokeColor=#FFFFFF;" parent="1" vertex="1">
          <mxGeometry x="336" y="705" width="240" height="10" as="geometry" />
        </mxCell>
        <mxCell id="60da8b9f42644d3a-8" value="Divisi&lt;br&gt;Pembelian" style="ellipse;whiteSpace=wrap;html=1;rounded=0;shadow=0;strokeWidth=6;fontSize=14;align=center;fillColor=#BFB4A9;strokeColor=#FFFFFF;fontColor=#FFFFFF;" parent="1" vertex="1">
          <mxGeometry x="259" y="545" width="115" height="115" as="geometry" />
        </mxCell>
        <mxCell id="60da8b9f42644d3a-9" value="" style="html=1;shadow=0;dashed=0;align=center;verticalAlign=middle;shape=mxgraph.arrows2.stylisedArrow;dy=0.6;dx=40;notch=15;feather=0.4;rounded=0;strokeWidth=1;fontSize=27;strokeColor=none;fillColor=#fff2cc;" parent="1" vertex="1">
          <mxGeometry x="406" y="573" width="100" height="60" as="geometry" />
        </mxCell>
        <mxCell id="60da8b9f42644d3a-17" value="" style="whiteSpace=wrap;html=1;rounded=1;shadow=0;strokeWidth=8;fontSize=20;align=center;fillColor=#FFC001;strokeColor=#FFFFFF;" parent="1" vertex="1">
          <mxGeometry x="596" y="405" width="280" height="430" as="geometry" />
        </mxCell>
        <mxCell id="60da8b9f42644d3a-18" value="Terima Barang" style="text;html=1;strokeColor=none;fillColor=none;align=center;verticalAlign=middle;whiteSpace=wrap;rounded=0;shadow=0;fontSize=27;fontColor=#FFFFFF;fontStyle=1" parent="1" vertex="1">
          <mxGeometry x="596" y="425" width="280" height="60" as="geometry" />
        </mxCell>
        <mxCell id="60da8b9f42644d3a-19" value="Print BPB" style="text;html=1;strokeColor=none;fillColor=none;align=center;verticalAlign=middle;whiteSpace=wrap;rounded=0;shadow=0;fontSize=14;fontColor=#000000;fontStyle=1" parent="1" vertex="1">
          <mxGeometry x="596" y="725" width="280" height="90" as="geometry" />
        </mxCell>
        <mxCell id="60da8b9f42644d3a-20" value="" style="line;strokeWidth=2;html=1;rounded=0;shadow=0;fontSize=27;align=center;fillColor=none;strokeColor=#FFFFFF;" parent="1" vertex="1">
          <mxGeometry x="616" y="485" width="240" height="10" as="geometry" />
        </mxCell>
        <mxCell id="60da8b9f42644d3a-21" value="" style="line;strokeWidth=2;html=1;rounded=0;shadow=0;fontSize=27;align=center;fillColor=none;strokeColor=#FFFFFF;" parent="1" vertex="1">
          <mxGeometry x="616" y="705" width="240" height="10" as="geometry" />
        </mxCell>
        <mxCell id="60da8b9f42644d3a-22" value="Divisi&lt;br&gt;Logistik" style="ellipse;whiteSpace=wrap;html=1;rounded=0;shadow=0;strokeWidth=6;fontSize=14;align=center;fillColor=#397DAA;strokeColor=#FFFFFF;fontColor=#FFFFFF;" parent="1" vertex="1">
          <mxGeometry x="539" y="545" width="115" height="115" as="geometry" />
        </mxCell>
        <mxCell id="60da8b9f42644d3a-23" value="" style="html=1;shadow=0;dashed=0;align=center;verticalAlign=middle;shape=mxgraph.arrows2.stylisedArrow;dy=0.6;dx=40;notch=15;feather=0.4;rounded=0;strokeWidth=1;fontSize=27;strokeColor=none;fillColor=#fff2cc;" parent="1" vertex="1">
          <mxGeometry x="686" y="573" width="100" height="60" as="geometry" />
        </mxCell>
        <mxCell id="60da8b9f42644d3a-24" value="" style="whiteSpace=wrap;html=1;rounded=1;shadow=0;strokeWidth=8;fontSize=20;align=center;fillColor=#FFB001;strokeColor=#FFFFFF;" parent="1" vertex="1">
          <mxGeometry x="876" y="405" width="280" height="430" as="geometry" />
        </mxCell>
        <mxCell id="60da8b9f42644d3a-25" value="Penjualan" style="text;html=1;strokeColor=none;fillColor=none;align=center;verticalAlign=middle;whiteSpace=wrap;rounded=0;shadow=0;fontSize=27;fontColor=#FFFFFF;fontStyle=1" parent="1" vertex="1">
          <mxGeometry x="876" y="425" width="280" height="60" as="geometry" />
        </mxCell>
        <mxCell id="60da8b9f42644d3a-26" value="Print DO&lt;br&gt;Print Surat Jalan" style="text;html=1;strokeColor=none;fillColor=none;align=center;verticalAlign=middle;whiteSpace=wrap;rounded=0;shadow=0;fontSize=14;fontColor=#000000;fontStyle=1" parent="1" vertex="1">
          <mxGeometry x="876" y="725" width="280" height="90" as="geometry" />
        </mxCell>
        <mxCell id="60da8b9f42644d3a-27" value="" style="line;strokeWidth=2;html=1;rounded=0;shadow=0;fontSize=27;align=center;fillColor=none;strokeColor=#FFFFFF;" parent="1" vertex="1">
          <mxGeometry x="896" y="485" width="240" height="10" as="geometry" />
        </mxCell>
        <mxCell id="60da8b9f42644d3a-28" value="" style="line;strokeWidth=2;html=1;rounded=0;shadow=0;fontSize=27;align=center;fillColor=none;strokeColor=#FFFFFF;" parent="1" vertex="1">
          <mxGeometry x="896" y="705" width="240" height="10" as="geometry" />
        </mxCell>
        <mxCell id="60da8b9f42644d3a-29" value="Divisi&lt;br&gt;Penjualan" style="ellipse;whiteSpace=wrap;html=1;rounded=0;shadow=0;strokeWidth=6;fontSize=14;align=center;fillColor=#EF9353;strokeColor=#FFFFFF;fontColor=#FFFFFF;" parent="1" vertex="1">
          <mxGeometry x="819" y="545" width="115" height="115" as="geometry" />
        </mxCell>
        <mxCell id="60da8b9f42644d3a-30" value="" style="html=1;shadow=0;dashed=0;align=center;verticalAlign=middle;shape=mxgraph.arrows2.stylisedArrow;dy=0.6;dx=40;notch=15;feather=0.4;rounded=0;strokeWidth=1;fontSize=27;strokeColor=none;fillColor=#fff2cc;" parent="1" vertex="1">
          <mxGeometry x="966" y="573" width="100" height="60" as="geometry" />
        </mxCell>
        <mxCell id="60da8b9f42644d3a-34" value="" style="line;strokeWidth=2;html=1;rounded=0;shadow=0;fontSize=27;align=center;fillColor=none;strokeColor=#FFFFFF;" parent="1" vertex="1">
          <mxGeometry x="1176" y="485" width="240" height="10" as="geometry" />
        </mxCell>
        <mxCell id="60da8b9f42644d3a-35" value="" style="line;strokeWidth=2;html=1;rounded=0;shadow=0;fontSize=27;align=center;fillColor=none;strokeColor=#FFFFFF;" parent="1" vertex="1">
          <mxGeometry x="1176" y="705" width="240" height="10" as="geometry" />
        </mxCell>
        <mxCell id="8H5z0bGd2YHfDFZXJcyK-1" value="" style="whiteSpace=wrap;html=1;rounded=1;shadow=0;strokeWidth=8;fontSize=20;align=center;fillColor=#FED217;strokeColor=#FFFFFF;" vertex="1" parent="1">
          <mxGeometry x="316" y="1170" width="280" height="430" as="geometry" />
        </mxCell>
        <mxCell id="8H5z0bGd2YHfDFZXJcyK-2" value="Pembelian" style="text;html=1;strokeColor=none;fillColor=none;align=center;verticalAlign=middle;whiteSpace=wrap;rounded=0;shadow=0;fontSize=27;fontColor=#FFFFFF;fontStyle=1" vertex="1" parent="1">
          <mxGeometry x="316" y="1190" width="280" height="60" as="geometry" />
        </mxCell>
        <mxCell id="8H5z0bGd2YHfDFZXJcyK-3" value="Print PP&lt;br style=&quot;border-color: var(--border-color);&quot;&gt;Print PO" style="text;html=1;strokeColor=none;fillColor=none;align=center;verticalAlign=middle;whiteSpace=wrap;rounded=0;shadow=0;fontSize=14;fontColor=#000000;fontStyle=1" vertex="1" parent="1">
          <mxGeometry x="316" y="1490" width="280" height="90" as="geometry" />
        </mxCell>
        <mxCell id="8H5z0bGd2YHfDFZXJcyK-4" value="" style="line;strokeWidth=2;html=1;rounded=0;shadow=0;fontSize=27;align=center;fillColor=none;strokeColor=#FFFFFF;" vertex="1" parent="1">
          <mxGeometry x="336" y="1250" width="240" height="10" as="geometry" />
        </mxCell>
        <mxCell id="8H5z0bGd2YHfDFZXJcyK-5" value="" style="line;strokeWidth=2;html=1;rounded=0;shadow=0;fontSize=27;align=center;fillColor=none;strokeColor=#FFFFFF;" vertex="1" parent="1">
          <mxGeometry x="336" y="1470" width="240" height="10" as="geometry" />
        </mxCell>
        <mxCell id="8H5z0bGd2YHfDFZXJcyK-6" value="Divisi&lt;br style=&quot;border-color: var(--border-color);&quot;&gt;Pembelian" style="ellipse;whiteSpace=wrap;html=1;rounded=0;shadow=0;strokeWidth=6;fontSize=14;align=center;fillColor=#BFB4A9;strokeColor=#FFFFFF;fontColor=#FFFFFF;" vertex="1" parent="1">
          <mxGeometry x="259" y="1310" width="115" height="115" as="geometry" />
        </mxCell>
        <mxCell id="8H5z0bGd2YHfDFZXJcyK-7" value="" style="html=1;shadow=0;dashed=0;align=center;verticalAlign=middle;shape=mxgraph.arrows2.stylisedArrow;dy=0.6;dx=40;notch=15;feather=0.4;rounded=0;strokeWidth=1;fontSize=27;strokeColor=none;fillColor=#fff2cc;" vertex="1" parent="1">
          <mxGeometry x="406" y="1338" width="100" height="60" as="geometry" />
        </mxCell>
        <mxCell id="8H5z0bGd2YHfDFZXJcyK-8" value="" style="whiteSpace=wrap;html=1;rounded=1;shadow=0;strokeWidth=8;fontSize=20;align=center;fillColor=#FFC001;strokeColor=#FFFFFF;" vertex="1" parent="1">
          <mxGeometry x="596" y="1170" width="280" height="430" as="geometry" />
        </mxCell>
        <mxCell id="8H5z0bGd2YHfDFZXJcyK-9" value="Terima Barang" style="text;html=1;strokeColor=none;fillColor=none;align=center;verticalAlign=middle;whiteSpace=wrap;rounded=0;shadow=0;fontSize=27;fontColor=#FFFFFF;fontStyle=1" vertex="1" parent="1">
          <mxGeometry x="596" y="1190" width="280" height="60" as="geometry" />
        </mxCell>
        <mxCell id="8H5z0bGd2YHfDFZXJcyK-10" value="Print BPB" style="text;html=1;strokeColor=none;fillColor=none;align=center;verticalAlign=middle;whiteSpace=wrap;rounded=0;shadow=0;fontSize=14;fontColor=#000000;fontStyle=1" vertex="1" parent="1">
          <mxGeometry x="596" y="1490" width="280" height="90" as="geometry" />
        </mxCell>
        <mxCell id="8H5z0bGd2YHfDFZXJcyK-11" value="" style="line;strokeWidth=2;html=1;rounded=0;shadow=0;fontSize=27;align=center;fillColor=none;strokeColor=#FFFFFF;" vertex="1" parent="1">
          <mxGeometry x="616" y="1250" width="240" height="10" as="geometry" />
        </mxCell>
        <mxCell id="8H5z0bGd2YHfDFZXJcyK-12" value="" style="line;strokeWidth=2;html=1;rounded=0;shadow=0;fontSize=27;align=center;fillColor=none;strokeColor=#FFFFFF;" vertex="1" parent="1">
          <mxGeometry x="616" y="1470" width="240" height="10" as="geometry" />
        </mxCell>
        <mxCell id="8H5z0bGd2YHfDFZXJcyK-13" value="Divisi&lt;br style=&quot;border-color: var(--border-color);&quot;&gt;Logistik" style="ellipse;whiteSpace=wrap;html=1;rounded=0;shadow=0;strokeWidth=6;fontSize=14;align=center;fillColor=#397DAA;strokeColor=#FFFFFF;fontColor=#FFFFFF;" vertex="1" parent="1">
          <mxGeometry x="539" y="1310" width="115" height="115" as="geometry" />
        </mxCell>
        <mxCell id="8H5z0bGd2YHfDFZXJcyK-14" value="" style="html=1;shadow=0;dashed=0;align=center;verticalAlign=middle;shape=mxgraph.arrows2.stylisedArrow;dy=0.6;dx=40;notch=15;feather=0.4;rounded=0;strokeWidth=1;fontSize=27;strokeColor=none;fillColor=#fff2cc;" vertex="1" parent="1">
          <mxGeometry x="686" y="1338" width="100" height="60" as="geometry" />
        </mxCell>
        <mxCell id="8H5z0bGd2YHfDFZXJcyK-15" value="" style="whiteSpace=wrap;html=1;rounded=1;shadow=0;strokeWidth=8;fontSize=20;align=center;fillColor=#FFB001;strokeColor=#FFFFFF;" vertex="1" parent="1">
          <mxGeometry x="876" y="1170" width="280" height="430" as="geometry" />
        </mxCell>
        <mxCell id="8H5z0bGd2YHfDFZXJcyK-16" value="Penjualan" style="text;html=1;strokeColor=none;fillColor=none;align=center;verticalAlign=middle;whiteSpace=wrap;rounded=0;shadow=0;fontSize=27;fontColor=#FFFFFF;fontStyle=1" vertex="1" parent="1">
          <mxGeometry x="876" y="1190" width="280" height="60" as="geometry" />
        </mxCell>
        <mxCell id="8H5z0bGd2YHfDFZXJcyK-17" value="Print DO" style="text;html=1;strokeColor=none;fillColor=none;align=center;verticalAlign=middle;whiteSpace=wrap;rounded=0;shadow=0;fontSize=14;fontColor=#000000;fontStyle=1" vertex="1" parent="1">
          <mxGeometry x="876" y="1490" width="280" height="90" as="geometry" />
        </mxCell>
        <mxCell id="8H5z0bGd2YHfDFZXJcyK-18" value="" style="line;strokeWidth=2;html=1;rounded=0;shadow=0;fontSize=27;align=center;fillColor=none;strokeColor=#FFFFFF;" vertex="1" parent="1">
          <mxGeometry x="896" y="1250" width="240" height="10" as="geometry" />
        </mxCell>
        <mxCell id="8H5z0bGd2YHfDFZXJcyK-19" value="" style="line;strokeWidth=2;html=1;rounded=0;shadow=0;fontSize=27;align=center;fillColor=none;strokeColor=#FFFFFF;" vertex="1" parent="1">
          <mxGeometry x="896" y="1470" width="240" height="10" as="geometry" />
        </mxCell>
        <mxCell id="8H5z0bGd2YHfDFZXJcyK-20" value="Divisi&lt;br style=&quot;border-color: var(--border-color);&quot;&gt;Penjualan" style="ellipse;whiteSpace=wrap;html=1;rounded=0;shadow=0;strokeWidth=6;fontSize=14;align=center;fillColor=#EF9353;strokeColor=#FFFFFF;fontColor=#FFFFFF;" vertex="1" parent="1">
          <mxGeometry x="819" y="1310" width="115" height="115" as="geometry" />
        </mxCell>
        <mxCell id="8H5z0bGd2YHfDFZXJcyK-21" value="" style="html=1;shadow=0;dashed=0;align=center;verticalAlign=middle;shape=mxgraph.arrows2.stylisedArrow;dy=0.6;dx=40;notch=15;feather=0.4;rounded=0;strokeWidth=1;fontSize=27;strokeColor=none;fillColor=#fff2cc;" vertex="1" parent="1">
          <mxGeometry x="966" y="1338" width="100" height="60" as="geometry" />
        </mxCell>
        <mxCell id="8H5z0bGd2YHfDFZXJcyK-29" value="" style="whiteSpace=wrap;html=1;rounded=1;shadow=0;strokeWidth=8;fontSize=20;align=center;fillColor=#FF3333;strokeColor=#FFFFFF;" vertex="1" parent="1">
          <mxGeometry x="1160" y="1170" width="280" height="430" as="geometry" />
        </mxCell>
        <mxCell id="8H5z0bGd2YHfDFZXJcyK-30" value="Keluar Barang" style="text;html=1;strokeColor=none;fillColor=none;align=center;verticalAlign=middle;whiteSpace=wrap;rounded=0;shadow=0;fontSize=27;fontColor=#FFFFFF;fontStyle=1" vertex="1" parent="1">
          <mxGeometry x="1160" y="1190" width="280" height="60" as="geometry" />
        </mxCell>
        <mxCell id="8H5z0bGd2YHfDFZXJcyK-31" value="Print&amp;nbsp;SPM&lt;br&gt;Print Surat Jalan" style="text;html=1;strokeColor=none;fillColor=none;align=center;verticalAlign=middle;whiteSpace=wrap;rounded=0;shadow=0;fontSize=14;fontColor=#000000;fontStyle=1" vertex="1" parent="1">
          <mxGeometry x="1160" y="1490" width="280" height="90" as="geometry" />
        </mxCell>
        <mxCell id="8H5z0bGd2YHfDFZXJcyK-32" value="" style="line;strokeWidth=2;html=1;rounded=0;shadow=0;fontSize=27;align=center;fillColor=none;strokeColor=#FFFFFF;" vertex="1" parent="1">
          <mxGeometry x="1180" y="1250" width="240" height="10" as="geometry" />
        </mxCell>
        <mxCell id="8H5z0bGd2YHfDFZXJcyK-33" value="" style="line;strokeWidth=2;html=1;rounded=0;shadow=0;fontSize=27;align=center;fillColor=none;strokeColor=#FFFFFF;" vertex="1" parent="1">
          <mxGeometry x="1180" y="1470" width="240" height="10" as="geometry" />
        </mxCell>
        <mxCell id="8H5z0bGd2YHfDFZXJcyK-34" value="" style="html=1;shadow=0;dashed=0;align=center;verticalAlign=middle;shape=mxgraph.arrows2.stylisedArrow;dy=0.6;dx=40;notch=15;feather=0.4;rounded=0;strokeWidth=1;fontSize=27;strokeColor=none;fillColor=#fff2cc;" vertex="1" parent="1">
          <mxGeometry x="1250" y="1338" width="100" height="60" as="geometry" />
        </mxCell>
        <mxCell id="8H5z0bGd2YHfDFZXJcyK-24" value="Divisi &lt;br&gt;Logistik /&amp;nbsp;&lt;br&gt;EMKL" style="ellipse;whiteSpace=wrap;html=1;rounded=0;shadow=0;strokeWidth=6;fontSize=14;align=center;fillColor=#397DAA;strokeColor=#FFFFFF;fontColor=#FFFFFF;" vertex="1" parent="1">
          <mxGeometry x="1120" y="1310.5" width="115" height="115" as="geometry" />
        </mxCell>
        <mxCell id="8H5z0bGd2YHfDFZXJcyK-49" value="Keluar Barang" style="text;html=1;strokeColor=none;fillColor=none;align=center;verticalAlign=middle;whiteSpace=wrap;rounded=0;shadow=0;fontSize=27;fontColor=#FFFFFF;fontStyle=1" vertex="1" parent="1">
          <mxGeometry x="1460" y="1190" width="280" height="60" as="geometry" />
        </mxCell>
        <mxCell id="8H5z0bGd2YHfDFZXJcyK-50" value="" style="whiteSpace=wrap;html=1;rounded=1;shadow=0;strokeWidth=8;fontSize=20;align=center;fillColor=#FFB001;strokeColor=#FFFFFF;" vertex="1" parent="1">
          <mxGeometry x="1460" y="1170" width="280" height="430" as="geometry" />
        </mxCell>
        <mxCell id="8H5z0bGd2YHfDFZXJcyK-51" value="" style="html=1;shadow=0;dashed=0;align=center;verticalAlign=middle;shape=mxgraph.arrows2.stylisedArrow;dy=0.6;dx=40;notch=15;feather=0.4;rounded=0;strokeWidth=1;fontSize=27;strokeColor=none;fillColor=#fff2cc;" vertex="1" parent="1">
          <mxGeometry x="1550" y="1338" width="100" height="60" as="geometry" />
        </mxCell>
        <mxCell id="8H5z0bGd2YHfDFZXJcyK-52" value="Customer" style="ellipse;whiteSpace=wrap;html=1;rounded=0;shadow=0;strokeWidth=6;fontSize=14;align=center;fillColor=#68B85C;strokeColor=#FFFFFF;fontColor=#FFFFFF;" vertex="1" parent="1">
          <mxGeometry x="1704" y="1310.5" width="115" height="115" as="geometry" />
        </mxCell>
        <mxCell id="8H5z0bGd2YHfDFZXJcyK-53" value="Print Surat Jalan" style="text;html=1;strokeColor=none;fillColor=none;align=center;verticalAlign=middle;whiteSpace=wrap;rounded=0;shadow=0;fontSize=14;fontColor=#000000;fontStyle=1" vertex="1" parent="1">
          <mxGeometry x="1460" y="1490" width="280" height="90" as="geometry" />
        </mxCell>
        <mxCell id="8H5z0bGd2YHfDFZXJcyK-35" value="Divisi&lt;br style=&quot;border-color: var(--border-color);&quot;&gt;Penjualan" style="ellipse;whiteSpace=wrap;html=1;rounded=0;shadow=0;strokeWidth=6;fontSize=14;align=center;fillColor=#EF9353;strokeColor=#FFFFFF;fontColor=#FFFFFF;" vertex="1" parent="1">
          <mxGeometry x="1404" y="1310.5" width="115" height="115" as="geometry" />
        </mxCell>
        <mxCell id="8H5z0bGd2YHfDFZXJcyK-54" value="Realisasi Penjualan" style="text;html=1;strokeColor=none;fillColor=none;align=center;verticalAlign=middle;whiteSpace=wrap;rounded=0;shadow=0;fontSize=27;fontColor=#FFFFFF;fontStyle=1" vertex="1" parent="1">
          <mxGeometry x="1460" y="1190" width="280" height="60" as="geometry" />
        </mxCell>
        <mxCell id="8H5z0bGd2YHfDFZXJcyK-55" value="" style="line;strokeWidth=2;html=1;rounded=0;shadow=0;fontSize=27;align=center;fillColor=none;strokeColor=#FFFFFF;" vertex="1" parent="1">
          <mxGeometry x="1480" y="1470" width="240" height="10" as="geometry" />
        </mxCell>
        <mxCell id="8H5z0bGd2YHfDFZXJcyK-56" value="" style="line;strokeWidth=2;html=1;rounded=0;shadow=0;fontSize=27;align=center;fillColor=none;strokeColor=#FFFFFF;" vertex="1" parent="1">
          <mxGeometry x="1480" y="1250" width="240" height="10" as="geometry" />
        </mxCell>
        <mxCell id="8H5z0bGd2YHfDFZXJcyK-59" value="&lt;font color=&quot;#000000&quot;&gt;PT TNL&lt;/font&gt;" style="text;html=1;strokeColor=none;fillColor=none;align=center;verticalAlign=middle;whiteSpace=wrap;rounded=0;shadow=0;fontSize=27;fontColor=#FFFFFF;fontStyle=1" vertex="1" parent="1">
          <mxGeometry x="887" y="1090" width="280" height="60" as="geometry" />
        </mxCell>
        <mxCell id="8H5z0bGd2YHfDFZXJcyK-60" value="Realisasi Penjualan" style="text;html=1;strokeColor=none;fillColor=none;align=center;verticalAlign=middle;whiteSpace=wrap;rounded=0;shadow=0;fontSize=27;fontColor=#FFFFFF;fontStyle=1" vertex="1" parent="1">
          <mxGeometry x="1176" y="430" width="280" height="60" as="geometry" />
        </mxCell>
        <mxCell id="8H5z0bGd2YHfDFZXJcyK-61" value="" style="whiteSpace=wrap;html=1;rounded=1;shadow=0;strokeWidth=8;fontSize=20;align=center;fillColor=#FFB001;strokeColor=#FFFFFF;" vertex="1" parent="1">
          <mxGeometry x="1176" y="410" width="280" height="430" as="geometry" />
        </mxCell>
        <mxCell id="8H5z0bGd2YHfDFZXJcyK-62" value="" style="html=1;shadow=0;dashed=0;align=center;verticalAlign=middle;shape=mxgraph.arrows2.stylisedArrow;dy=0.6;dx=40;notch=15;feather=0.4;rounded=0;strokeWidth=1;fontSize=27;strokeColor=none;fillColor=#fff2cc;" vertex="1" parent="1">
          <mxGeometry x="1266" y="578" width="100" height="60" as="geometry" />
        </mxCell>
        <mxCell id="8H5z0bGd2YHfDFZXJcyK-63" value="Customer" style="ellipse;whiteSpace=wrap;html=1;rounded=0;shadow=0;strokeWidth=6;fontSize=14;align=center;fillColor=#68B85C;strokeColor=#FFFFFF;fontColor=#FFFFFF;" vertex="1" parent="1">
          <mxGeometry x="1420" y="550.5" width="115" height="115" as="geometry" />
        </mxCell>
        <mxCell id="8H5z0bGd2YHfDFZXJcyK-64" value="Print Surat Jalan" style="text;html=1;strokeColor=none;fillColor=none;align=center;verticalAlign=middle;whiteSpace=wrap;rounded=0;shadow=0;fontSize=14;fontColor=#000000;fontStyle=1" vertex="1" parent="1">
          <mxGeometry x="1176" y="730" width="280" height="90" as="geometry" />
        </mxCell>
        <mxCell id="8H5z0bGd2YHfDFZXJcyK-65" value="" style="line;strokeWidth=2;html=1;rounded=0;shadow=0;fontSize=27;align=center;fillColor=none;strokeColor=#FFFFFF;" vertex="1" parent="1">
          <mxGeometry x="1196" y="710" width="240" height="10" as="geometry" />
        </mxCell>
        <mxCell id="8H5z0bGd2YHfDFZXJcyK-66" value="" style="line;strokeWidth=2;html=1;rounded=0;shadow=0;fontSize=27;align=center;fillColor=none;strokeColor=#FFFFFF;" vertex="1" parent="1">
          <mxGeometry x="1196" y="490" width="240" height="10" as="geometry" />
        </mxCell>
        <mxCell id="60da8b9f42644d3a-36" value="Divisi&lt;br style=&quot;border-color: var(--border-color);&quot;&gt;Penjualan" style="ellipse;whiteSpace=wrap;html=1;rounded=0;shadow=0;strokeWidth=6;fontSize=14;align=center;fillColor=#EF9353;strokeColor=#FFFFFF;fontColor=#FFFFFF;" parent="1" vertex="1">
          <mxGeometry x="1099" y="545" width="115" height="115" as="geometry" />
        </mxCell>
        <mxCell id="8H5z0bGd2YHfDFZXJcyK-67" value="Realisasi Penjualan" style="text;html=1;strokeColor=none;fillColor=none;align=center;verticalAlign=middle;whiteSpace=wrap;rounded=0;shadow=0;fontSize=27;fontColor=#FFFFFF;fontStyle=1" vertex="1" parent="1">
          <mxGeometry x="1180" y="430" width="280" height="60" as="geometry" />
        </mxCell>
      </root>
    </mxGraphModel>
  </diagram>
</mxfile>
